<svg xmlns="http://www.w3.org/2000/svg" width="24" height="24" viewBox="0 0 24 24">
  <g id="Group_3372" data-name="Group 3372" transform="translate(-85 -138)">
    <rect id="Rectangle_332" data-name="Rectangle 332" width="24" height="24" transform="translate(85 138)" fill="none"/>
    <g id="Page-1" transform="translate(88.333 138)">
      <g id="manage-Booking" transform="translate(0 0)">
        <path id="Path" d="M14.594,1.562H12.9a2.344,2.344,0,0,0-4.42,0h-1.7A.782.782,0,0,0,6,2.344V5.469a.782.782,0,0,0,.781.781h7.812a.782.782,0,0,0,.781-.781V2.344A.782.782,0,0,0,14.594,1.562Z" transform="translate(-1.813)" fill="#e8e8e8"/>
        <path id="Shape" d="M16.271,4H14.792V6.237a2.23,2.23,0,0,1-2.219,2.237h-7.4A2.23,2.23,0,0,1,2.958,6.237V4H1.479A1.488,1.488,0,0,0,0,5.491V23.384a1.469,1.469,0,0,0,1.479,1.491H16.271a1.469,1.469,0,0,0,1.479-1.491V5.491A1.469,1.469,0,0,0,16.271,4ZM8.659,17.2,5.7,20.184a.739.739,0,0,1-1.047,0L3.174,18.693a.75.75,0,0,1,0-1.054.736.736,0,0,1,1.046,0l.957.963,2.435-2.454a.736.736,0,0,1,1.046,0A.75.75,0,0,1,8.659,17.2Zm0-5.964L5.7,14.22a.739.739,0,0,1-1.047,0L3.174,12.729a.75.75,0,0,1,0-1.054.736.736,0,0,1,1.046,0l.957.963,2.435-2.454a.736.736,0,0,1,1.046,0A.75.75,0,0,1,8.659,11.238Zm5.393,7.673H11.094a.746.746,0,0,1,0-1.491h2.958a.746.746,0,0,1,0,1.491Zm0-5.964H11.094a.746.746,0,0,1,0-1.491h2.958a.746.746,0,0,1,0,1.491Z" transform="translate(0 -0.875)" fill="#a9a9a9" fill-rule="evenodd"/>
      </g>
    </g>
  </g>
</svg>
