<svg xmlns="http://www.w3.org/2000/svg" xmlns:xlink="http://www.w3.org/1999/xlink" width="20" height="20" viewBox="0 0 20 20">
  <defs>
    <clipPath id="clip-path">
      <rect id="Rectangle_4" data-name="Rectangle 4" width="20" height="20" transform="translate(145 180)" fill="#ec1e27"/>
    </clipPath>
  </defs>
  <g id="Contact_Us" data-name="Contact Us" transform="translate(-145 -180)" clip-path="url(#clip-path)">
    <g id="phone-line_2_" data-name="phone-line (2)" transform="translate(145 180)">
      <path id="Path_23" data-name="Path 23" d="M0,0H20V20H0Z" fill="none"/>
      <path id="Path_24" data-name="Path 24" d="M7.8,8.9A8.8,8.8,0,0,0,11.1,12.195l.737-1.032a.833.833,0,0,1,1.078-.247,9.518,9.518,0,0,0,3.819,1.137.833.833,0,0,1,.767.831V16.6a.833.833,0,0,1-.749.829A12.924,12.924,0,0,1,2.568,3.248.833.833,0,0,1,3.4,2.5H7.116a.833.833,0,0,1,.831.768A9.518,9.518,0,0,0,9.083,7.087a.833.833,0,0,1-.247,1.078L7.8,8.9ZM5.7,8.354,7.287,7.223a11.175,11.175,0,0,1-.914-3.057h-2.2c-.005.138-.008.278-.008.417a11.249,11.249,0,0,0,11.249,11.25c.139,0,.278,0,.417-.008v-2.2a11.175,11.175,0,0,1-3.057-.914L11.646,14.3a10.368,10.368,0,0,1-1.323-.625l-.048-.028A10.463,10.463,0,0,1,6.356,9.726l-.028-.048A10.368,10.368,0,0,1,5.7,8.354Z" fill="#ec1e27"/>
    </g>
  </g>
</svg>
