<svg id="Layer_1" data-name="Layer 1" xmlns="http://www.w3.org/2000/svg" viewBox="0 0 75.15 75.15"><defs><style>.cls-1{fill:#fff;}.cls-2{fill:#009145;}</style></defs><rect class="cls-1" width="75.15" height="75.15" rx="7.13"/><path class="cls-2" d="M37.57,60.52a22.95,22.95,0,1,1,23-23A23,23,0,0,1,37.57,60.52Zm0-44.89a21.95,21.95,0,1,0,22,21.94A22,22,0,0,0,37.57,15.63Z"/><path class="cls-2" d="M34.45,45.27a1.86,1.86,0,0,1-1.32-.54l-6.07-6.07a1.51,1.51,0,0,1,0-2.12,1.49,1.49,0,0,1,2.12,0l5.27,5.26L46,30.31a1.5,1.5,0,0,1,2.12,2.13L35.76,44.73A1.86,1.86,0,0,1,34.45,45.27Zm-.81-2.67h0Z"/></svg>