<svg xmlns="http://www.w3.org/2000/svg" xmlns:xlink="http://www.w3.org/1999/xlink" width="20" height="20" viewBox="0 0 20 20">
  <defs>
    <clipPath id="clip-path">
      <rect id="Rectangle_15" data-name="Rectangle 15" width="20" height="20" transform="translate(3912 285)" fill="#ec1e27"/>
    </clipPath>
  </defs>
  <g id="payment" transform="translate(-3912 -285)" clip-path="url(#clip-path)">
    <g id="bank-card-line" transform="translate(3912 285)">
      <path id="Path_41" data-name="Path 41" d="M0,0H20V20H0Z" fill="none"/>
      <path id="Path_42" data-name="Path 42" d="M2.5,2.5h15a.833.833,0,0,1,.833.833V16.667a.833.833,0,0,1-.833.833H2.5a.833.833,0,0,1-.833-.833V3.333A.833.833,0,0,1,2.5,2.5ZM16.667,9.167H3.333v6.667H16.667Zm0-1.667V4.167H3.333V7.5Zm-5,5H15v1.667H11.667Z" fill="#ec1e27"/>
    </g>
  </g>
</svg>
