<svg xmlns="http://www.w3.org/2000/svg" xmlns:xlink="http://www.w3.org/1999/xlink" width="20" height="20" viewBox="0 0 20 20">
  <defs>
    <clipPath id="clip-path">
      <rect id="Rectangle_10" data-name="Rectangle 10" width="20" height="20" transform="translate(3912 147)" fill="#ec1e27"/>
    </clipPath>
  </defs>
  <g id="profile" transform="translate(-3912 -147)" clip-path="url(#clip-path)">
    <g id="user-line_2_" data-name="user-line (2)" transform="translate(3912 147)">
      <path id="Path_31" data-name="Path 31" d="M0,0H20V20H0Z" fill="none"/>
      <path id="Path_32" data-name="Path 32" d="M3.333,18.333a6.667,6.667,0,0,1,13.333,0H15a5,5,0,0,0-10,0ZM10,10.833a5,5,0,1,1,5-5A5,5,0,0,1,10,10.833Zm0-1.667A3.333,3.333,0,1,0,6.667,5.833,3.332,3.332,0,0,0,10,9.167Z" fill="#ec1e27"/>
    </g>
  </g>
</svg>
