<svg xmlns="http://www.w3.org/2000/svg" xmlns:xlink="http://www.w3.org/1999/xlink" width="24" height="24" viewBox="0 0 24 24">
  <defs>
    <clipPath id="clip-path">
      <rect id="Rectangle_4303" data-name="Rectangle 4303" width="24" height="24" transform="translate(12648 5222)" fill="#a9a9a9"/>
    </clipPath>
  </defs>
  <g id="Group_21803" data-name="Group 21803" transform="translate(-12648 -5222)">
    <g id="Mask_Group_436" data-name="Mask Group 436" clip-path="url(#clip-path)">
      <g id="user-settings-fill" transform="translate(12648 5222)">
        <path id="Path_32547" data-name="Path 32547" d="M0,0H24V24H0Z" fill="none"/>
        <path id="Path_32548" data-name="Path 32548" d="M12,14v8H4a8,8,0,0,1,8-8Zm0-1a6,6,0,1,1,6-6A6,6,0,0,1,12,13Z" fill="#a9a9a9"/>
      </g>
    </g>
    <g id="Mask_Group_437" data-name="Mask Group 437" clip-path="url(#clip-path)">
      <g id="user-settings-fill-2" data-name="user-settings-fill" transform="translate(12648 5222)">
        <path id="Path_32549" data-name="Path 32549" d="M0,0H24V24H0Z" fill="none"/>
        <path id="Path_32550" data-name="Path 32550" d="M14.6,18.812a3.51,3.51,0,0,1,0-1.623l-.992-.573,1-1.732.992.573A3.5,3.5,0,0,1,17,14.645V13.5h2v1.145a3.492,3.492,0,0,1,1.405.812l.992-.573,1,1.732-.992.573a3.51,3.51,0,0,1,0,1.622l.992.573-1,1.732-.992-.573a3.5,3.5,0,0,1-1.4.812V22.5H17V21.355a3.5,3.5,0,0,1-1.4-.812l-.992.573-1-1.732.992-.572ZM18,17a1,1,0,1,0,1,1A1,1,0,0,0,18,17Z" fill="#e8e8e8"/>
      </g>
    </g>
  </g>
</svg>
