<svg width="24" height="25" viewBox="0 0 24 25" fill="none" xmlns="http://www.w3.org/2000/svg">
<path d="M17.9935 24.611C17.6701 24.558 17.3455 24.511 17.0233 24.4501C15.7686 24.2111 14.5963 23.73 13.4569 23.16C11.5907 22.2253 9.85468 21.0804 8.29865 19.675C5.18 16.8583 2.71234 13.5685 1.32548 9.51469C0.982946 8.51298 0.777307 7.48323 0.800621 6.41446C0.823337 5.38592 1.15092 4.48177 1.86408 3.74344C2.49594 3.08925 3.10807 2.41129 3.78477 1.80953C4.88051 0.835869 6.00973 0.847453 7.06004 1.86074C8.1217 2.8844 9.14691 3.95073 10.1476 5.0378C10.969 5.92976 10.9636 7.14059 10.1619 8.04779C9.60063 8.68308 8.99088 9.27447 8.3925 9.87501C8.27414 9.9939 8.26398 10.0768 8.33332 10.2256C8.92812 11.498 9.79192 12.5716 10.7251 13.5916C11.6749 14.6299 12.7199 15.5579 13.8963 16.323C14.2048 16.5236 14.5395 16.6833 14.8546 16.8742C14.9807 16.9504 15.0566 16.9363 15.1588 16.8303C15.6568 16.3108 16.1625 15.7987 16.6682 15.2872C17.0628 14.8878 17.504 14.5653 18.0695 14.4702C18.8322 14.3415 19.4784 14.5946 20.0164 15.1335C20.995 16.1145 21.964 17.1064 22.9318 18.0984C23.9726 19.1653 24.0569 20.3743 23.095 21.5053C22.4285 22.2887 21.6908 23.013 20.9514 23.727C20.4265 24.2336 19.7618 24.4812 19.0433 24.569C18.9924 24.575 18.9434 24.5964 18.8938 24.611C18.5937 24.611 18.2936 24.611 17.9935 24.611ZM1.96869 6.51627C1.97288 7.50762 2.21618 8.58553 2.62805 9.69089C3.667 12.479 5.30912 14.872 7.28361 17.0388C9.20668 19.1495 11.4466 20.8353 13.9842 22.1046C15.2473 22.7369 16.5487 23.2496 17.9648 23.3996C18.8257 23.4904 19.6428 23.388 20.2932 22.7527C20.9586 22.1022 21.6006 21.4254 22.2241 20.7328C22.7262 20.1756 22.7172 19.6037 22.199 19.0623C21.1989 18.0167 20.182 16.9869 19.1592 15.9645C18.745 15.5505 18.2117 15.5463 17.7508 15.9096C17.6444 15.9938 17.5476 16.0907 17.4519 16.1877C16.8936 16.7541 16.3395 17.3247 15.7793 17.8893C15.4141 18.2569 15.0225 18.3209 14.5682 18.0862C14.2406 17.9173 13.9136 17.7454 13.5992 17.5533C12.1143 16.6455 10.8255 15.4957 9.66459 14.1928C8.69797 13.1088 7.81683 11.9638 7.21905 10.6152C6.91119 9.92013 6.97097 9.61712 7.50718 9.08913C8.08942 8.51542 8.67286 7.9411 9.22641 7.33934C9.69986 6.82416 9.69508 6.28155 9.21505 5.76819C8.48097 4.9817 7.72178 4.2196 6.97037 3.45018C6.69539 3.16851 6.42041 2.88501 6.12988 2.62102C5.67736 2.21009 5.15609 2.20399 4.67846 2.58626C4.5846 2.66126 4.49494 2.74417 4.41005 2.83014C3.88878 3.35873 3.37588 3.89525 2.84863 4.41775C2.23889 5.02316 1.94359 5.75234 1.96869 6.51627Z" fill="#D9BD3E" stroke="#D9BD3E" stroke-width="0.2"/>
</svg>
