<svg width="26" height="22" viewBox="0 0 26 22" fill="none" xmlns="http://www.w3.org/2000/svg">
<path d="M4.61197 18.6727C5.15429 18.2618 5.71433 17.8371 6.26068 17.414C6.57012 17.1741 6.8989 17.0623 7.29536 17.0623C7.29617 17.0623 7.29778 17.0623 7.29859 17.0623C12.9071 17.0712 17.4762 17.072 21.6793 17.0647C23.7253 17.0615 25.2701 15.5029 25.2725 13.4402C25.2757 10.413 25.2757 7.20913 25.2725 3.6462C25.2709 1.56891 23.7076 0.00141836 21.6374 0.000607869C19.5987 -0.000202623 17.5592 -0.000202623 15.5196 0.000607869H12.9241H10.3374C9.47593 0.000607869 8.6145 0.000607869 7.75388 0.000607869C6.57254 0.000607869 5.392 0.000608042 4.21147 0.00141853C2.14453 0.00222903 0.585256 1.57296 0.58445 3.65431C0.583645 5.52654 0.583645 7.39959 0.58445 9.27183C0.58445 12.2917 0.585256 15.3116 0.582033 18.3315C0.581227 19.0901 0.87213 19.608 1.47086 19.9152C2.08087 20.2289 2.67476 20.1535 3.28477 19.6842C3.72556 19.3446 4.17601 19.0034 4.61197 18.6727ZM2.11149 18.6468V3.77345C2.11149 2.37292 2.93907 1.5373 4.32509 1.5373C10.0642 1.5373 15.8033 1.5373 21.5415 1.5373C22.9219 1.5373 23.7463 2.36562 23.7463 3.75238C23.7471 6.94653 23.7471 10.1415 23.7463 13.3356C23.7463 14.69 22.9058 15.5313 21.5536 15.5321L19.3279 15.5329C15.3633 15.5345 11.2641 15.5353 7.2309 15.5288C7.22929 15.5288 7.22767 15.5288 7.22526 15.5288C6.53305 15.5288 5.93594 15.7315 5.39926 16.1489C4.72559 16.6724 4.05433 17.179 3.3444 17.7147C3.04464 17.9409 2.74164 18.1694 2.43463 18.4028L2.11149 18.6468Z" fill="#D9BD3E"/>
<path d="M16.7371 10.6549C16.2109 10.6574 15.7741 10.227 15.7676 9.70018C15.7612 9.15715 16.2012 8.71624 16.7427 8.72273C17.2697 8.72921 17.6968 9.16363 17.6952 9.69289C17.6952 10.2238 17.2673 10.6525 16.7371 10.6549Z" fill="#D9BD3E"/>
<path d="M8.16406 9.68963C8.16406 9.15632 8.58632 8.72838 9.11816 8.72271C9.65484 8.71704 10.1005 9.16605 10.0924 9.70341C10.0843 10.2318 9.64839 10.6582 9.12058 10.6549C8.59276 10.6517 8.16406 10.2197 8.16406 9.68963Z" fill="#D9BD3E"/>
<path d="M12.0254 9.68963C12.0254 9.15632 12.4476 8.72838 12.9795 8.72271C13.5162 8.71704 13.9618 9.16605 13.9537 9.70341C13.9457 10.2318 13.5097 10.6582 12.9819 10.6549C12.4533 10.6517 12.0254 10.2189 12.0254 9.68963Z" fill="#D9BD3E"/>
</svg>
