<svg width="28" height="27" viewBox="0 0 28 27" fill="none" xmlns="http://www.w3.org/2000/svg">
<path d="M27.2863 5.2365C27.2451 5.44595 27.2108 5.65746 27.162 5.86485C26.6937 7.86734 25.5221 9.33693 23.7413 10.3306C23.5195 10.4542 23.4405 10.573 23.4625 10.8237C23.5326 11.6292 23.5724 12.4375 23.6342 13.2444C23.7297 14.4839 23.3574 15.5559 22.4798 16.4356C19.4341 19.4895 16.3897 22.5447 13.3296 25.5828C11.9911 26.9116 9.99061 26.9219 8.64665 25.5979C6.35291 23.3385 4.07704 21.0607 1.81696 18.7677C0.473681 17.4046 0.49703 15.4069 1.84992 14.0479C4.87435 11.0098 7.90977 7.98202 10.9424 4.9522C11.8359 4.05946 12.9134 3.68382 14.175 3.77241C16.6472 3.94683 19.1209 4.09929 21.5946 4.26135C21.7923 4.2744 21.9894 4.28814 22.1865 4.30668C22.7311 4.35887 23.1239 4.80112 23.1013 5.3347C23.0793 5.86554 22.6473 6.292 22.0973 6.26727C21.1344 6.2247 20.173 6.1519 19.2116 6.08941C17.4597 5.97473 15.7078 5.85936 13.9559 5.74262C13.2959 5.69867 12.75 5.93078 12.285 6.39638C9.28601 9.39942 6.28287 12.3977 3.28316 15.4C2.64242 16.0414 2.64036 16.8064 3.27904 17.4471C5.50478 19.6776 7.73259 21.9054 9.96314 24.1303C10.5936 24.7594 11.3641 24.7594 11.9925 24.1324C15.0039 21.1294 18.0118 18.1236 21.0211 15.1191C21.4565 14.6845 21.7024 14.1694 21.6694 13.5479C21.6262 12.7321 21.5657 11.917 21.5108 11.0778C21.3611 11.0778 21.2251 11.0908 21.0926 11.0757C20.5404 11.0112 19.9876 10.9466 19.4382 10.8621C19.3015 10.8415 19.215 10.8223 19.1065 10.9459C18.5605 11.5674 17.7069 11.7631 16.9693 11.4534C16.216 11.1375 15.7593 10.3801 15.8218 9.55256C15.8822 8.75527 16.444 8.08915 17.2605 7.89824C17.9493 7.73686 18.544 7.947 19.0612 8.42359C19.7149 9.02584 20.504 9.19684 21.3631 9.07391C22.7325 8.87751 23.7661 8.13791 24.5407 7.02404C25.1189 6.19311 25.3998 5.27084 25.2721 4.24556C25.1313 3.11384 24.2111 2.23895 23.0704 2.12908C22.2717 2.05216 21.5369 2.2259 20.833 2.58918C20.6283 2.69494 20.4161 2.81168 20.1943 2.85151C19.7246 2.93598 19.2905 2.65923 19.1305 2.22316C18.9712 1.78915 19.1285 1.31393 19.5419 1.05435C20.287 0.586693 21.0974 0.290028 21.9709 0.171225C22.0554 0.15955 22.1385 0.138262 22.2222 0.121094C22.532 0.121094 22.8424 0.121094 23.1521 0.121094C23.2009 0.134828 23.2489 0.15543 23.2984 0.16161C25.2741 0.419132 26.6655 1.64974 27.1531 3.576C27.2053 3.78271 27.241 3.99284 27.2849 4.20161C27.2863 4.54772 27.2863 4.89245 27.2863 5.2365Z" fill="#D9BD3E" stroke="white" stroke-width="0.1"/>
</svg>
